<svg width="40" height="40" viewBox="0 0 40 40" fill="none" xmlns="http://www.w3.org/2000/svg">
<path fill-rule="evenodd" clip-rule="evenodd" d="M27.2161 1.77707C27.4407 1.81855 27.6442 1.93586 27.7926 2.10938C27.8933 2.22763 27.9658 2.36724 28.0045 2.51763C28.0433 2.66803 28.0474 2.82527 28.0164 2.97747L26.2599 11.5837C26.2059 11.8481 26.0491 12.0803 25.824 12.2291C25.5989 12.3779 25.3239 12.4312 25.0595 12.3772C24.7951 12.3233 24.5629 12.1665 24.4141 11.9414C24.2653 11.7162 24.212 11.4412 24.266 11.1768L25.5342 4.97814L1.57367 20.8411C1.34884 20.9904 1.07391 21.0442 0.80936 20.9908C0.544814 20.9374 0.312323 20.7811 0.163033 20.5562C0.0137424 20.3314 -0.0401181 20.0565 0.0132999 19.7919C0.066718 19.5274 0.223039 19.2949 0.447874 19.1456L24.4084 3.28266L18.1894 2.01444C17.925 1.96047 17.6928 1.80369 17.544 1.57857C17.3952 1.35345 17.3419 1.07844 17.3959 0.814035C17.4499 0.549629 17.6067 0.317488 17.8318 0.168681C17.9432 0.0949988 18.0681 0.0439935 18.1993 0.0185771C18.3305 -0.00683939 18.4654 -0.00616922 18.5963 0.0205492L27.2161 1.77707ZM38.9896 13.4081H30.9937C30.7239 13.4081 30.4651 13.5152 30.2743 13.706C30.0836 13.8968 29.9764 14.1556 29.9764 14.4254V38.9827C29.9764 39.2525 30.0836 39.5113 30.2743 39.702C30.4651 39.8928 30.7239 40 30.9937 40H38.9896C39.2594 40 39.5181 39.8928 39.7089 39.702C39.8997 39.5113 40.0069 39.2525 40.0069 38.9827V14.4254C40.0069 14.1556 39.8997 13.8968 39.7089 13.706C39.5181 13.5152 39.2594 13.4081 38.9896 13.4081ZM37.9723 37.9654H32.011V15.4426H37.9723V37.9654ZM16.0056 18.976H23.9947C24.2645 18.976 24.5233 19.0832 24.7141 19.274C24.9048 19.4648 25.012 19.7235 25.012 19.9933V38.9827C25.012 39.2525 24.9048 39.5113 24.7141 39.702C24.5233 39.8928 24.2645 40 23.9947 40H16.0056C15.7358 40 15.4771 39.8928 15.2863 39.702C15.0955 39.5113 14.9883 39.2525 14.9883 38.9827V19.9933C14.9883 19.7235 15.0955 19.4648 15.2863 19.274C15.4771 19.0832 15.7358 18.976 16.0056 18.976ZM17.0229 37.9654H22.9774V21.0106H17.0229V37.9654ZM1.01076 24.7407H9.00665C9.27412 24.7406 9.53084 24.846 9.72123 25.0338C9.91162 25.2217 10.0204 25.4769 10.0239 25.7444V38.9827C10.0239 39.2525 9.91676 39.5113 9.72599 39.702C9.53521 39.8928 9.27645 40 9.00665 40H1.01076C0.740962 40 0.48221 39.8928 0.291432 39.702C0.100653 39.5113 -0.00652548 39.2525 -0.00652548 38.9827V25.758C-0.00652548 25.4882 0.100653 25.2294 0.291432 25.0386C0.48221 24.8478 0.740962 24.7407 1.01076 24.7407ZM2.02805 37.9654H7.98936V26.7752H2.02805V37.9654Z" fill="white"/>
</svg>
