<svg width="40" height="40" viewBox="0 0 40 40" fill="none" xmlns="http://www.w3.org/2000/svg">
<path fill-rule="evenodd" clip-rule="evenodd" d="M39.5245 0.294711C39.7682 0.490936 39.9352 0.766643 39.9962 1.07357C40.006 1.15996 40.006 1.24718 39.9962 1.33357V15.8868C39.9962 16.2404 39.8557 16.5796 39.6057 16.8296C39.3556 17.0797 39.0165 17.2201 38.6629 17.2201C38.3092 17.2201 37.9701 17.0797 37.7201 16.8296C37.47 16.5796 37.3295 16.2404 37.3295 15.8868V4.55355L17.8297 24.0534C17.5795 24.3036 17.2401 24.4442 16.8863 24.4442C16.5325 24.4442 16.1932 24.3036 15.943 24.0534C15.6928 23.8032 15.5523 23.4639 15.5523 23.1101C15.5523 22.7563 15.6928 22.417 15.943 22.1668L35.4762 2.6669H24.1429C23.7893 2.6669 23.4502 2.52642 23.2001 2.27637C22.9501 2.02633 22.8096 1.68719 22.8096 1.33357C22.8096 0.97995 22.9501 0.640814 23.2001 0.390767C23.4502 0.14072 23.7893 0.000244952 24.1429 0.000244952H38.6629C38.9757 -0.00575076 39.2807 0.0984871 39.5245 0.294711ZM31.5001 22.1706C31.7501 21.9206 32.0893 21.7801 32.4429 21.7801C32.7965 21.7801 33.1357 21.9206 33.3857 22.1706C33.6357 22.4207 33.7762 22.7598 33.7762 23.1134V38.6667C33.7762 39.0203 33.6357 39.3594 33.3857 39.6095C33.1357 39.8595 32.7965 40 32.4429 40H1.32975C0.976135 40 0.636998 39.8595 0.386951 39.6095C0.136904 39.3594 -0.00357056 39.0203 -0.00357056 38.6667V7.55352C-0.00357056 7.1999 0.136904 6.86076 0.386951 6.61072C0.636998 6.36067 0.976135 6.22019 1.32975 6.22019H16.883C17.2366 6.22019 17.5757 6.36067 17.8258 6.61072C18.0758 6.86076 18.2163 7.1999 18.2163 7.55352C18.2163 7.90714 18.0758 8.24628 17.8258 8.49632C17.5757 8.74637 17.2366 8.88684 16.883 8.88684H2.66308V37.3333H31.1096V23.1134C31.1096 22.7598 31.25 22.4207 31.5001 22.1706Z" fill="white"/>
</svg>
