<svg width="40" height="40" viewBox="0 0 40 40" fill="none" xmlns="http://www.w3.org/2000/svg">
<path d="M35.9997 8.01781C35.6201 7.51612 35.2201 7.04832 34.8133 6.60087L39.6879 1.7263C39.8675 1.53352 39.9653 1.27854 39.9606 1.01508C39.956 0.751621 39.8493 0.500252 39.6629 0.313929C39.4766 0.127607 39.2252 0.020879 38.9618 0.0162306C38.6983 0.0115822 38.4433 0.109376 38.2506 0.28901L21.0031 17.5364V15.0687C21.0031 14.7989 20.896 14.5403 20.7053 14.3496C20.5146 14.1588 20.2559 14.0517 19.9862 14.0517C18.8116 14.0517 17.6633 14.4 16.6867 15.0526C15.71 15.7052 14.9488 16.6327 14.4993 17.7179C14.0498 18.8031 13.9322 19.9973 14.1613 21.1493C14.3905 22.3014 14.9561 23.3596 15.7867 24.1902C16.6173 25.0208 17.6755 25.5864 18.8275 25.8155C19.9796 26.0447 21.1737 25.9271 22.2589 25.4776C23.3441 25.0281 24.2717 24.2669 24.9243 23.2902C25.5768 22.3135 25.9252 21.1653 25.9252 19.9907C25.9252 19.721 25.818 19.4623 25.6273 19.2716C25.4366 19.0809 25.1779 18.9737 24.9082 18.9737H22.4404L28.393 13.0212C30.0283 14.9752 30.9236 17.4426 30.9218 19.9907C30.9203 22.3275 30.1698 24.6024 28.7804 26.4813C27.391 28.3603 25.436 29.7444 23.2022 30.4307C20.9683 31.1169 18.5734 31.069 16.3688 30.294C14.1642 29.5191 12.266 28.0579 10.9529 26.1249C9.6397 24.1919 8.98072 21.8889 9.07262 19.5539C9.16452 17.2188 10.0025 14.9747 11.4635 13.1509C12.9245 11.3271 14.9316 10.0196 17.1903 9.42034C19.449 8.82106 21.8403 8.96156 24.0133 9.8212C24.1388 9.87736 24.2744 9.90732 24.4118 9.90925C24.5493 9.91118 24.6857 9.88503 24.8127 9.83241C24.9397 9.77978 25.0546 9.70179 25.1504 9.60321C25.2462 9.50463 25.3209 9.38753 25.3699 9.25908C25.4189 9.13063 25.4411 8.99354 25.4353 8.8562C25.4294 8.71885 25.3956 8.58415 25.3359 8.46033C25.2761 8.33651 25.1918 8.22619 25.0879 8.13611C24.9841 8.04603 24.863 7.97809 24.7319 7.93646C23.2229 7.33149 21.612 7.02082 19.9862 7.0212C17.0239 7.01621 14.1489 8.02386 11.8378 9.87707C9.52682 11.7303 7.91864 14.3177 7.27996 17.2104C6.64128 20.103 7.01047 23.127 8.32632 25.781C9.64216 28.4351 11.8256 30.5596 14.5146 31.8024C17.2036 33.0452 20.2366 33.3315 23.1107 32.614C25.9848 31.8965 28.5273 30.2181 30.3166 27.8573C32.1059 25.4965 33.0346 22.595 32.9486 19.6339C32.8626 16.6729 31.7671 13.8301 29.8438 11.5771L33.376 8.03815C36.3841 11.4154 38.0073 15.8033 37.9212 20.3251C37.8351 24.847 36.0461 29.1698 32.9116 32.4301C29.7771 35.6904 25.5279 37.6481 21.0129 37.9119C16.498 38.1758 12.0497 36.7265 8.55673 33.8535C5.06379 30.9806 2.7834 26.8955 2.17114 22.4145C1.55888 17.9334 2.65983 13.3864 5.25405 9.68171C7.84826 5.97704 11.7447 3.38755 16.165 2.43057C20.5852 1.47358 25.2038 2.21958 29.098 4.51951C29.33 4.65976 29.6082 4.70213 29.8713 4.63728C30.1345 4.57244 30.3612 4.4057 30.5014 4.17375C30.6417 3.9418 30.684 3.66363 30.6192 3.40045C30.5544 3.13726 30.3876 2.91061 30.1557 2.77036C25.8807 0.2506 20.8218 -0.589968 15.9617 0.411989C11.1016 1.41395 6.7876 4.18687 3.85786 8.19195C0.928113 12.197 -0.408107 17.1482 0.108836 22.0835C0.62578 27.0188 2.95897 31.5856 6.65504 34.8967C10.3511 38.2078 15.1461 40.0266 20.1083 39.9997C25.0705 39.9728 29.8455 38.1022 33.5055 34.7513C37.1655 31.4004 39.4491 26.8085 39.9125 21.868C40.376 16.9274 38.9862 11.9909 36.0133 8.01781H35.9997ZM19.9862 23.8958C19.0371 23.9015 18.1185 23.5607 17.4027 22.9373C16.6869 22.314 16.2231 21.451 16.0983 20.5101C15.9736 19.5692 16.1963 18.615 16.7249 17.8267C17.2534 17.0383 18.0514 16.4699 18.9692 16.228V19.9907C18.9698 20.1186 18.9951 20.2453 19.0438 20.3636C19.1514 20.613 19.3503 20.8119 19.5997 20.9195C19.7181 20.9682 19.8447 20.9935 19.9726 20.9941H23.7353C23.5163 21.8226 23.0303 22.5558 22.3525 23.0803C21.6748 23.6049 20.8432 23.8914 19.9862 23.8958Z" fill="white"/>
</svg>
